<mxfile host="app.diagrams.net" modified="2023-06-15T22:41:10.433Z" agent="Mozilla/5.0 (Windows NT 10.0; Win64; x64; rv:109.0) Gecko/20100101 Firefox/112.0" etag="3-khmFX90IMlplZzYyYe" version="21.3.8" type="github">
  <diagram name="第 1 页" id="tVCD1R4m1hZjUDDud_YI">
    <mxGraphModel dx="1647" dy="893" grid="1" gridSize="10" guides="1" tooltips="1" connect="1" arrows="1" fold="1" page="1" pageScale="1" pageWidth="1169" pageHeight="827" math="0" shadow="0">
      <root>
        <mxCell id="0" />
        <mxCell id="1" parent="0" />
        <mxCell id="G9nYNT6cLUph-u-CRbCG-1" value="" style="rounded=0;whiteSpace=wrap;html=1;fillColor=#6a00ff;fontColor=#ffffff;strokeColor=#3700CC;" vertex="1" parent="1">
          <mxGeometry width="1169" height="827" as="geometry" />
        </mxCell>
        <mxCell id="G9nYNT6cLUph-u-CRbCG-2" value="" style="rounded=0;whiteSpace=wrap;html=1;" vertex="1" parent="1">
          <mxGeometry y="110" width="1169" height="727" as="geometry" />
        </mxCell>
        <mxCell id="G9nYNT6cLUph-u-CRbCG-3" value="资料录入" style="text;strokeColor=none;align=left;fillColor=none;html=1;verticalAlign=middle;whiteSpace=wrap;rounded=0;fontSize=24;fontColor=#F2F2F2;" vertex="1" parent="1">
          <mxGeometry x="20" y="40" width="250" height="30" as="geometry" />
        </mxCell>
        <mxCell id="G9nYNT6cLUph-u-CRbCG-4" value="Notifications" style="html=1;shadow=0;dashed=0;shape=mxgraph.bootstrap.rrect;rSize=5;strokeWidth=1;whiteSpace=wrap;align=left;verticalAlign=middle;spacingLeft=10;fontStyle=0;fontSize=14;fillColor=#dae8fc;strokeColor=#6c8ebf;" vertex="1" parent="1">
          <mxGeometry x="1020" y="30" width="130" height="40" as="geometry" />
        </mxCell>
        <mxCell id="G9nYNT6cLUph-u-CRbCG-5" value="4" style="html=1;shadow=0;dashed=0;shape=mxgraph.bootstrap.rrect;rSize=5;strokeColor=none;strokeWidth=1;fillColor=#ffffff;fontColor=#000000;whiteSpace=wrap;align=center;verticalAlign=middle;fontSize=12;" vertex="1" parent="G9nYNT6cLUph-u-CRbCG-4">
          <mxGeometry x="1" y="0.5" width="20" height="20" relative="1" as="geometry">
            <mxPoint x="-30" y="-10" as="offset" />
          </mxGeometry>
        </mxCell>
        <mxCell id="G9nYNT6cLUph-u-CRbCG-6" value="晚上好，guest" style="text;strokeColor=none;align=left;fillColor=none;html=1;verticalAlign=middle;whiteSpace=wrap;rounded=0;fontSize=12;fontColor=#F2F2F2;" vertex="1" parent="1">
          <mxGeometry x="919" y="35" width="250" height="30" as="geometry" />
        </mxCell>
        <mxCell id="G9nYNT6cLUph-u-CRbCG-8" value="上传文件" style="html=1;shadow=0;dashed=0;shape=mxgraph.bootstrap.rrect;rSize=5;strokeColor=#CED4DA;html=1;whiteSpace=wrap;fillColor=#FFFFFF;fontColor=#7D868C;align=left;spacingLeft=0;spacing=15;fontSize=14;" vertex="1" parent="1">
          <mxGeometry x="60" y="394" width="800" height="40" as="geometry" />
        </mxCell>
        <mxCell id="G9nYNT6cLUph-u-CRbCG-9" value="浏览" style="html=1;shadow=0;dashed=0;shape=mxgraph.bootstrap.rightButton;strokeColor=#6C757D;gradientColor=inherit;fontColor=inherit;fillColor=inherit;rSize=5;perimeter=none;whiteSpace=wrap;resizeHeight=1;fontSize=14;" vertex="1" parent="G9nYNT6cLUph-u-CRbCG-8">
          <mxGeometry x="1" width="70" height="40" relative="1" as="geometry">
            <mxPoint x="-70" as="offset" />
          </mxGeometry>
        </mxCell>
        <mxCell id="G9nYNT6cLUph-u-CRbCG-10" value="请选择录入机制" style="text;strokeColor=none;align=left;fillColor=none;html=1;verticalAlign=middle;whiteSpace=wrap;rounded=0;fontSize=24;" vertex="1" parent="1">
          <mxGeometry x="60" y="170" width="250" height="30" as="geometry" />
        </mxCell>
        <mxCell id="G9nYNT6cLUph-u-CRbCG-11" value="提交" style="html=1;shadow=0;dashed=0;shape=mxgraph.bootstrap.rrect;rSize=5;strokeColor=#0085FC;strokeWidth=1;fillColor=none;fontColor=#0085FC;whiteSpace=wrap;align=center;verticalAlign=middle;spacingLeft=0;fontStyle=0;fontSize=16;spacing=5;" vertex="1" parent="1">
          <mxGeometry x="919" y="394" width="130" height="40" as="geometry" />
        </mxCell>
        <mxCell id="G9nYNT6cLUph-u-CRbCG-13" value="新建资料" style="html=1;shadow=0;dashed=0;shape=mxgraph.bootstrap.rrect;rSize=5;strokeColor=none;strokeWidth=1;fillColor=#0085FC;fontColor=#FFFFFF;whiteSpace=wrap;align=center;verticalAlign=middle;spacingLeft=0;fontStyle=0;fontSize=16;spacing=5;" vertex="1" parent="1">
          <mxGeometry x="60" y="240" width="260" height="40" as="geometry" />
        </mxCell>
        <mxCell id="G9nYNT6cLUph-u-CRbCG-14" value="或" style="text;strokeColor=none;align=left;fillColor=none;html=1;verticalAlign=middle;whiteSpace=wrap;rounded=0;fontSize=24;" vertex="1" parent="1">
          <mxGeometry x="370" y="245" width="250" height="30" as="geometry" />
        </mxCell>
        <mxCell id="G9nYNT6cLUph-u-CRbCG-15" value="输入id" style="html=1;shadow=0;dashed=0;shape=mxgraph.bootstrap.rrect;rSize=5;strokeColor=#CED4DA;html=1;whiteSpace=wrap;fillColor=#FFFFFF;fontColor=#7D868C;align=left;spacingLeft=0;spacing=15;fontSize=14;" vertex="1" parent="1">
          <mxGeometry x="430" y="241.25" width="620" height="37.5" as="geometry" />
        </mxCell>
        <mxCell id="G9nYNT6cLUph-u-CRbCG-16" value="&lt;font color=&quot;#ffffff&quot;&gt;进行编辑&lt;/font&gt;" style="html=1;shadow=0;dashed=0;shape=mxgraph.bootstrap.rightButton;strokeColor=inherit;gradientColor=inherit;fontColor=inherit;fillColor=#0085fc;rSize=5;perimeter=none;whiteSpace=wrap;resizeHeight=1;fontSize=14;" vertex="1" parent="G9nYNT6cLUph-u-CRbCG-15">
          <mxGeometry x="1" width="279" height="37.5" relative="1" as="geometry">
            <mxPoint x="-279" as="offset" />
          </mxGeometry>
        </mxCell>
        <mxCell id="G9nYNT6cLUph-u-CRbCG-17" value="或是从本地上传文件" style="text;strokeColor=none;align=left;fillColor=none;html=1;verticalAlign=middle;whiteSpace=wrap;rounded=0;fontSize=24;" vertex="1" parent="1">
          <mxGeometry x="60" y="340" width="250" height="30" as="geometry" />
        </mxCell>
        <mxCell id="G9nYNT6cLUph-u-CRbCG-18" value="&lt;font style=&quot;font-size: 12px;&quot;&gt;注：文件需要符合格式【录入格式规范】&lt;/font&gt;" style="text;strokeColor=none;align=left;fillColor=none;html=1;verticalAlign=middle;whiteSpace=wrap;rounded=0;fontSize=24;" vertex="1" parent="1">
          <mxGeometry x="300" y="340" width="450" height="30" as="geometry" />
        </mxCell>
      </root>
    </mxGraphModel>
  </diagram>
</mxfile>
